<svg xmlns="http://www.w3.org/2000/svg" viewBox="0 0 640 360" role="img" aria-label="Family Tree preview">

  <defs>
    <linearGradient id="paper" x1="0" y1="0" x2="1" y2="1">
      <stop offset="0" stop-color="#fbf4e6"/>
      <stop offset="1" stop-color="#f0e2c8"/>
    </linearGradient>
    <filter id="shadow" x="-20%" y="-20%" width="140%" height="140%">
      <feDropShadow dx="0" dy="3" stdDeviation="4" flood-color="#000" flood-opacity=".15"/>
    </filter>
  </defs>

  <rect x="18" y="18" width="604" height="324" rx="18" fill="url(#paper)" stroke="#7a5a3c" stroke-opacity=".35" filter="url(#shadow)"/>
  <g fill="none" stroke="#7a5a3c" stroke-opacity=".55" stroke-width="4" stroke-linecap="round">
    <path d="M320 88 v44"/>
    <path d="M210 154 h220"/>
    <path d="M210 154 v36"/>
    <path d="M430 154 v36"/>
    <path d="M140 226 h360"/>
  </g>
  <g fill="#fff" stroke="#7a5a3c" stroke-opacity=".55" filter="url(#shadow)">
    <rect x="260" y="54" width="120" height="52" rx="12"/>
    <rect x="150" y="190" width="120" height="52" rx="12"/>
    <rect x="370" y="190" width="120" height="52" rx="12"/>
    <rect x="80" y="254" width="120" height="52" rx="12"/>
    <rect x="260" y="254" width="120" height="52" rx="12"/>
    <rect x="440" y="254" width="120" height="52" rx="12"/>
  </g>
  <g font-family="Georgia, 'Times New Roman', serif" fill="#3a2515" opacity=".85" font-weight="700">
    <text x="320" y="88" text-anchor="middle" font-size="18">Family</text>
    <text x="320" y="108" text-anchor="middle" font-size="18">Tree</text>
    <text x="210" y="222" text-anchor="middle" font-size="14" opacity=".75">Parents</text>
    <text x="430" y="222" text-anchor="middle" font-size="14" opacity=".75">Parents</text>
    <text x="140" y="286" text-anchor="middle" font-size="13" opacity=".7">Child</text>
    <text x="320" y="286" text-anchor="middle" font-size="13" opacity=".7">Child</text>
    <text x="500" y="286" text-anchor="middle" font-size="13" opacity=".7">Child</text>
  </g>
  <g opacity=".22" fill="none" stroke="#7a5a3c">
    <path d="M60 70 C120 30, 220 30, 280 70" stroke-width="2"/>
    <path d="M360 290 C420 330, 520 330, 580 290" stroke-width="2"/>
  </g>
</svg>