<svg xmlns="http://www.w3.org/2000/svg" viewBox="0 0 640 360" role="img" aria-label="Timeline preview">

  <defs>
    <linearGradient id="paper" x1="0" y1="0" x2="1" y2="1">
      <stop offset="0" stop-color="#fbf4e6"/>
      <stop offset="1" stop-color="#f0e2c8"/>
    </linearGradient>
    <filter id="shadow" x="-20%" y="-20%" width="140%" height="140%">
      <feDropShadow dx="0" dy="3" stdDeviation="4" flood-color="#000" flood-opacity=".15"/>
    </filter>
  </defs>

  <rect x="18" y="18" width="604" height="324" rx="18" fill="url(#paper)" stroke="#7a5a3c" stroke-opacity=".35" filter="url(#shadow)"/>
  <g fill="none" stroke="#7a5a3c" stroke-opacity=".55" stroke-width="6" stroke-linecap="round">
    <path d="M120 190 H520"/>
  </g>
  <g fill="#fff" stroke="#7a5a3c" stroke-opacity=".55" filter="url(#shadow)">
    <circle cx="160" cy="190" r="18"/>
    <circle cx="260" cy="190" r="18"/>
    <circle cx="360" cy="190" r="18"/>
    <circle cx="460" cy="190" r="18"/>
    <rect x="118" y="96" width="168" height="60" rx="14"/>
    <rect x="312" y="224" width="210" height="60" rx="14"/>
  </g>
  <g font-family="Georgia, 'Times New Roman', serif" fill="#3a2515" opacity=".85" font-weight="700">
    <text x="202" y="132" text-anchor="middle" font-size="18">Timeline</text>
    <text x="202" y="152" text-anchor="middle" font-size="14" opacity=".75">Key moments</text>
    <text x="417" y="260" text-anchor="middle" font-size="14" opacity=".75">Filter by era</text>
  </g>
  <g fill="#7a5a3c" opacity=".28">
    <path d="M146 244 l28 -42 l28 42 z"/>
    <path d="M346 136 l18 -30 l18 30 z"/>
  </g>
  <g opacity=".18" fill="none" stroke="#7a5a3c">
    <path d="M90 70 C170 40, 260 40, 340 70" stroke-width="2"/>
    <path d="M300 300 C380 330, 500 330, 590 300" stroke-width="2"/>
  </g>
</svg>