<svg xmlns="http://www.w3.org/2000/svg" viewBox="0 0 900 360" role="img" aria-label="Map preview">
  <defs>
    <linearGradient id="paperWide" x1="0" y1="0" x2="1" y2="1">
      <stop offset="0" stop-color="#fbf4e6"/>
      <stop offset="1" stop-color="#f0e2c8"/>
    </linearGradient>
    <filter id="shadowWide" x="-20%" y="-20%" width="140%" height="140%">
      <feDropShadow dx="0" dy="3" stdDeviation="4" flood-color="#000" flood-opacity=".15"/>
    </filter>
    <pattern id="grid" width="36" height="36" patternUnits="userSpaceOnUse">
      <path d="M36 0H0V36" fill="none" stroke="#7a5a3c" stroke-opacity=".12" stroke-width="2"/>
    </pattern>
  </defs>
  <rect x="18" y="18" width="864" height="324" rx="18" fill="url(#paperWide)" stroke="#7a5a3c" stroke-opacity=".35" filter="url(#shadowWide)"/>
  <rect x="54" y="54" width="792" height="252" rx="16" fill="url(#grid)" stroke="#7a5a3c" stroke-opacity=".20"/>
  <g fill="none" stroke="#7a5a3c" stroke-opacity=".35" stroke-width="6" stroke-linecap="round">
    <path d="M160 220 C260 140, 340 140, 430 200 S620 280, 740 170"/>
  </g>
  <g>
    <circle cx="160" cy="220" r="12" fill="#7a5a3c" opacity=".35"/>
    <circle cx="430" cy="200" r="12" fill="#7a5a3c" opacity=".35"/>
    <circle cx="740" cy="170" r="12" fill="#7a5a3c" opacity=".35"/>
  </g>
  <g fill="#fff" stroke="#7a5a3c" stroke-opacity=".55" filter="url(#shadowWide)">
    <path d="M160 186 c14 0 26 12 26 26 0 20-26 46-26 46s-26-26-26-46c0-14 12-26 26-26z"/>
    <circle cx="160" cy="212" r="10"/>
    <path d="M740 136 c14 0 26 12 26 26 0 20-26 46-26 46s-26-26-26-46c0-14 12-26 26-26z"/>
    <circle cx="740" cy="162" r="10"/>
  </g>
  <g font-family="Georgia, 'Times New Roman', serif" fill="#3a2515" opacity=".85" font-weight="700">
    <text x="450" y="110" text-anchor="middle" font-size="20">Map</text>
    <text x="450" y="132" text-anchor="middle" font-size="14" opacity=".75">Trace migrations</text>
  </g>
</svg>