<svg xmlns="http://www.w3.org/2000/svg" viewBox="0 0 520 32">
  <g fill="none" stroke="rgba(90,60,40,0.55)" stroke-width="2" stroke-linecap="round">
    <path d="M14 16H214"/>
    <path d="M306 16H506"/>
    <path d="M260 6c7 6 14 10 22 10-8 0-15 4-22 10-7-6-14-10-22-10 8 0 15-4 22-10z" fill="rgba(176,128,58,0.12)" stroke="rgba(90,60,40,0.45)"/>
    <path d="M240 16c6-4 10-6 20-6"/>
    <path d="M280 16c-6-4-10-6-20-6"/>
    <path d="M240 16c6 4 10 6 20 6"/>
    <path d="M280 16c-6 4-10 6-20 6"/>
  </g>
</svg>